<svg width="196" height="30" viewBox="0 0 196 30" fill="none" xmlns="http://www.w3.org/2000/svg">
<g id="Insurnce">
<path d="M5.77037 0.409246V29.302H0V0.409246H5.77037Z" fill="white"/>
<path d="M35.4634 29.302H29.693L16.7609 9.65821V29.302H10.9905V0.409246H16.7609L29.693 20.2167V0.409246H35.4634V29.302Z" fill="white"/>
<path d="M60.5332 21.4036C60.5332 22.8768 60.1649 24.241 59.4283 25.496C58.6916 26.7238 57.6003 27.7196 56.1543 28.4835C54.7083 29.2202 52.9485 29.5885 50.875 29.5885C48.8288 29.5885 47.0008 29.2474 45.3911 28.5654C43.7814 27.856 42.4855 26.8465 41.5033 25.5369C40.5484 24.2274 40.0027 22.6995 39.8663 20.9534H46.005C46.1414 22.1266 46.6052 23.1088 47.3964 23.9C48.2149 24.6639 49.2926 25.0459 50.6295 25.0459C51.8299 25.0459 52.7439 24.7321 53.3714 24.1046C54.0262 23.4498 54.3536 22.6177 54.3536 21.6082C54.3536 20.7078 54.0944 19.9712 53.576 19.3983C53.0577 18.798 52.4029 18.3206 51.6117 17.9659C50.8205 17.6112 49.7291 17.202 48.3377 16.7382C46.537 16.1379 45.0637 15.5513 43.9178 14.9784C42.772 14.3782 41.7898 13.5188 40.9713 12.4002C40.1801 11.2815 39.7845 9.8219 39.7845 8.02122C39.7845 5.53846 40.6712 3.58772 42.4446 2.169C44.2452 0.723001 46.6189 0 49.5654 0C52.6211 0 55.0493 0.736642 56.85 2.20993C58.678 3.68321 59.7147 5.64759 59.9603 8.10307H53.7397C53.576 7.06631 53.1395 6.22054 52.4302 5.56574C51.7208 4.88367 50.7523 4.54263 49.5245 4.54263C48.4605 4.54263 47.6011 4.8291 46.9463 5.40205C46.2915 5.94771 45.9641 6.75256 45.9641 7.8166C45.9641 8.66237 46.2096 9.37173 46.7007 9.94468C47.2191 10.4903 47.8602 10.9405 48.6242 11.2952C49.4154 11.6499 50.4794 12.0455 51.8163 12.482C53.6715 13.1368 55.1721 13.7507 56.318 14.3236C57.4912 14.8966 58.487 15.756 59.3055 16.9019C60.124 18.0477 60.5332 19.5483 60.5332 21.4036Z" fill="white"/>
<path d="M70.3497 0.409246V17.352C70.3497 19.6165 70.8408 21.3217 71.823 22.4676C72.8325 23.5862 74.2785 24.1455 76.161 24.1455C78.0162 24.1455 79.435 23.5862 80.4171 22.4676C81.4266 21.3217 81.9314 19.6165 81.9314 17.352V0.409246H87.6608V17.352C87.6608 20.0258 87.1561 22.2903 86.1466 24.1455C85.1644 25.9735 83.7866 27.3376 82.0132 28.238C80.2671 29.1383 78.2754 29.5885 76.0382 29.5885C72.5733 29.5885 69.804 28.5517 67.7305 26.4782C65.657 24.4047 64.6203 21.3626 64.6203 17.352V0.409246H70.3497Z" fill="white"/>
<path d="M107.78 29.302L101.027 18.0477H98.4902V29.302H92.7198V0.409246H103.729C107.084 0.409246 109.635 1.22774 111.381 2.86472C113.155 4.50171 114.041 6.65707 114.041 9.33081C114.041 11.5135 113.428 13.3414 112.2 14.8147C110.999 16.288 109.253 17.2702 106.962 17.7613L114.164 29.302H107.78ZM98.4902 14.0781H103.237C106.539 14.0781 108.189 12.6184 108.189 9.69913C108.189 8.30769 107.78 7.23001 106.962 6.46609C106.17 5.67488 104.929 5.27927 103.237 5.27927H98.4902V14.0781Z" fill="white"/>
<path d="M142.411 29.302H136.641L123.708 9.65821V29.302H117.938V0.409246H123.708L136.641 20.2167V0.409246H142.411V29.302Z" fill="white"/>
<path d="M160.687 0.122772C164.289 0.122772 167.276 1.0504 169.65 2.90565C172.023 4.76089 173.592 7.28458 174.356 10.4767H168.299C167.672 8.92156 166.689 7.69382 165.353 6.79348C164.043 5.89314 162.461 5.44297 160.605 5.44297C159.078 5.44297 157.7 5.82493 156.472 6.58886C155.244 7.35279 154.289 8.44411 153.607 9.86283C152.925 11.2815 152.584 12.9458 152.584 14.8556C152.584 16.7382 152.925 18.3888 153.607 19.8075C154.289 21.2262 155.244 22.3175 156.472 23.0815C157.7 23.8454 159.078 24.2274 160.605 24.2274C162.461 24.2274 164.043 23.7772 165.353 22.8769C166.689 21.9765 167.672 20.7488 168.299 19.1936H174.356C173.592 22.3858 172.023 24.9094 169.65 26.7647C167.276 28.6199 164.289 29.5476 160.687 29.5476C157.932 29.5476 155.49 28.9337 153.362 27.706C151.261 26.4509 149.624 24.7048 148.451 22.4676C147.305 20.2304 146.732 17.6931 146.732 14.8556C146.732 11.9909 147.305 9.43994 148.451 7.20273C149.624 4.96552 151.261 3.23304 153.362 2.0053C155.463 0.750283 157.904 0.122772 160.687 0.122772Z" fill="white"/>
<path d="M184.456 4.9928V12.482H194.687V16.9019H184.456V24.6775H195.915V29.302H178.685V0.409246H195.915V4.9928H184.456Z" fill="white"/>
</g>
</svg>
